<?xml version="1.0" standalone="no"?>
<svg xmlns:xlink="http://www.w3.org/1999/xlink" id="wave" style="transform:rotate(0deg); transition: 0.3s" viewBox="0 0 1440 300" version="1.1" xmlns="http://www.w3.org/2000/svg"><defs><linearGradient id="sw-gradient-0" x1="0" x2="0" y1="1" y2="0"><stop stop-color="rgba(29, 155, 240, 1)" offset="0%"/><stop stop-color="rgba(29, 155, 240, 1)" offset="100%"/></linearGradient></defs><path style="transform:translate(0, 0px); opacity:1" fill="url(#sw-gradient-0)" d="M0,270L80,225C160,180,320,90,480,85C640,80,800,160,960,165C1120,170,1280,100,1440,60C1600,20,1760,10,1920,50C2080,90,2240,180,2400,220C2560,260,2720,250,2880,230C3040,210,3200,180,3360,155C3520,130,3680,110,3840,110C4000,110,4160,130,4320,155C4480,180,4640,210,4800,215C4960,220,5120,200,5280,175C5440,150,5600,120,5760,120C5920,120,6080,150,6240,150C6400,150,6560,120,6720,110C6880,100,7040,110,7200,110C7360,110,7520,100,7680,85C7840,70,8000,50,8160,50C8320,50,8480,70,8640,85C8800,100,8960,110,9120,100C9280,90,9440,60,9600,60C9760,60,9920,90,10080,105C10240,120,10400,120,10560,140C10720,160,10880,200,11040,190C11200,180,11360,120,11440,90L11520,60L11520,300L11440,300C11360,300,11200,300,11040,300C10880,300,10720,300,10560,300C10400,300,10240,300,10080,300C9920,300,9760,300,9600,300C9440,300,9280,300,9120,300C8960,300,8800,300,8640,300C8480,300,8320,300,8160,300C8000,300,7840,300,7680,300C7520,300,7360,300,7200,300C7040,300,6880,300,6720,300C6560,300,6400,300,6240,300C6080,300,5920,300,5760,300C5600,300,5440,300,5280,300C5120,300,4960,300,4800,300C4640,300,4480,300,4320,300C4160,300,4000,300,3840,300C3680,300,3520,300,3360,300C3200,300,3040,300,2880,300C2720,300,2560,300,2400,300C2240,300,2080,300,1920,300C1760,300,1600,300,1440,300C1280,300,1120,300,960,300C800,300,640,300,480,300C320,300,160,300,80,300L0,300Z"/></svg>