<?xml version="1.0" standalone="no"?>
<svg xmlns:xlink="http://www.w3.org/1999/xlink" id="wave" style="transform:rotate(0deg); transition: 0.3s" viewBox="0 0 1440 300" version="1.1" xmlns="http://www.w3.org/2000/svg"><defs><linearGradient id="sw-gradient-0" x1="0" x2="0" y1="1" y2="0"><stop stop-color="rgba(29, 155, 240, 1)" offset="0%"/><stop stop-color="rgba(29, 155, 240, 1)" offset="100%"/></linearGradient></defs><path style="transform:translate(0, 0px); opacity:1" fill="url(#sw-gradient-0)" d="M0,120L80,145C160,170,320,220,480,220C640,220,800,170,960,150C1120,130,1280,140,1440,145C1600,150,1760,150,1920,170C2080,190,2240,230,2400,215C2560,200,2720,130,2880,120C3040,110,3200,160,3360,190C3520,220,3680,230,3840,240C4000,250,4160,260,4320,225C4480,190,4640,110,4800,65C4960,20,5120,10,5280,35C5440,60,5600,120,5760,125C5920,130,6080,80,6240,85C6400,90,6560,150,6720,155C6880,160,7040,110,7200,105C7360,100,7520,140,7680,160C7840,180,8000,180,8160,165C8320,150,8480,120,8640,120C8800,120,8960,150,9120,170C9280,190,9440,200,9600,190C9760,180,9920,150,10080,140C10240,130,10400,140,10560,160C10720,180,10880,210,11040,190C11200,170,11360,100,11440,65L11520,30L11520,300L11440,300C11360,300,11200,300,11040,300C10880,300,10720,300,10560,300C10400,300,10240,300,10080,300C9920,300,9760,300,9600,300C9440,300,9280,300,9120,300C8960,300,8800,300,8640,300C8480,300,8320,300,8160,300C8000,300,7840,300,7680,300C7520,300,7360,300,7200,300C7040,300,6880,300,6720,300C6560,300,6400,300,6240,300C6080,300,5920,300,5760,300C5600,300,5440,300,5280,300C5120,300,4960,300,4800,300C4640,300,4480,300,4320,300C4160,300,4000,300,3840,300C3680,300,3520,300,3360,300C3200,300,3040,300,2880,300C2720,300,2560,300,2400,300C2240,300,2080,300,1920,300C1760,300,1600,300,1440,300C1280,300,1120,300,960,300C800,300,640,300,480,300C320,300,160,300,80,300L0,300Z"/></svg>