<?xml version="1.0" standalone="no"?>
<svg xmlns:xlink="http://www.w3.org/1999/xlink" id="wave" style="transform:rotate(0deg); transition: 0.3s" viewBox="0 0 1440 300" version="1.1" xmlns="http://www.w3.org/2000/svg"><defs><linearGradient id="sw-gradient-0" x1="0" x2="0" y1="1" y2="0"><stop stop-color="rgba(29, 155, 240, 1)" offset="0%"/><stop stop-color="rgba(29, 155, 240, 1)" offset="100%"/></linearGradient></defs><path style="transform:translate(0, 0px); opacity:1" fill="url(#sw-gradient-0)" d="M0,90L80,115C160,140,320,190,480,210C640,230,800,220,960,190C1120,160,1280,110,1440,80C1600,50,1760,40,1920,50C2080,60,2240,90,2400,105C2560,120,2720,120,2880,140C3040,160,3200,200,3360,225C3520,250,3680,260,3840,240C4000,220,4160,170,4320,155C4480,140,4640,160,4800,180C4960,200,5120,220,5280,225C5440,230,5600,220,5760,215C5920,210,6080,210,6240,185C6400,160,6560,110,6720,110C6880,110,7040,160,7200,170C7360,180,7520,150,7680,130C7840,110,8000,100,8160,110C8320,120,8480,150,8640,140C8800,130,8960,80,9120,50C9280,20,9440,10,9600,40C9760,70,9920,140,10080,150C10240,160,10400,110,10560,85C10720,60,10880,60,11040,70C11200,80,11360,100,11440,110L11520,120L11520,300L11440,300C11360,300,11200,300,11040,300C10880,300,10720,300,10560,300C10400,300,10240,300,10080,300C9920,300,9760,300,9600,300C9440,300,9280,300,9120,300C8960,300,8800,300,8640,300C8480,300,8320,300,8160,300C8000,300,7840,300,7680,300C7520,300,7360,300,7200,300C7040,300,6880,300,6720,300C6560,300,6400,300,6240,300C6080,300,5920,300,5760,300C5600,300,5440,300,5280,300C5120,300,4960,300,4800,300C4640,300,4480,300,4320,300C4160,300,4000,300,3840,300C3680,300,3520,300,3360,300C3200,300,3040,300,2880,300C2720,300,2560,300,2400,300C2240,300,2080,300,1920,300C1760,300,1600,300,1440,300C1280,300,1120,300,960,300C800,300,640,300,480,300C320,300,160,300,80,300L0,300Z"/></svg>