<?xml version="1.0" standalone="no"?>
<svg xmlns:xlink="http://www.w3.org/1999/xlink" id="wave" style="transform:rotate(0deg); transition: 0.3s" viewBox="0 0 1440 300" version="1.1" xmlns="http://www.w3.org/2000/svg"><defs><linearGradient id="sw-gradient-0" x1="0" x2="0" y1="1" y2="0"><stop stop-color="rgba(29, 155, 240, 1)" offset="0%"/><stop stop-color="rgba(29, 155, 240, 1)" offset="100%"/></linearGradient></defs><path style="transform:translate(0, 0px); opacity:1" fill="url(#sw-gradient-0)" d="M0,210L80,185C160,160,320,110,480,120C640,130,800,200,960,235C1120,270,1280,270,1440,235C1600,200,1760,130,1920,110C2080,90,2240,120,2400,125C2560,130,2720,110,2880,115C3040,120,3200,150,3360,155C3520,160,3680,140,3840,130C4000,120,4160,120,4320,145C4480,170,4640,220,4800,215C4960,210,5120,150,5280,125C5440,100,5600,110,5760,105C5920,100,6080,80,6240,75C6400,70,6560,80,6720,85C6880,90,7040,90,7200,110C7360,130,7520,170,7680,190C7840,210,8000,210,8160,180C8320,150,8480,90,8640,65C8800,40,8960,50,9120,55C9280,60,9440,60,9600,60C9760,60,9920,60,10080,55C10240,50,10400,40,10560,75C10720,110,10880,190,11040,200C11200,210,11360,150,11440,120L11520,90L11520,300L11440,300C11360,300,11200,300,11040,300C10880,300,10720,300,10560,300C10400,300,10240,300,10080,300C9920,300,9760,300,9600,300C9440,300,9280,300,9120,300C8960,300,8800,300,8640,300C8480,300,8320,300,8160,300C8000,300,7840,300,7680,300C7520,300,7360,300,7200,300C7040,300,6880,300,6720,300C6560,300,6400,300,6240,300C6080,300,5920,300,5760,300C5600,300,5440,300,5280,300C5120,300,4960,300,4800,300C4640,300,4480,300,4320,300C4160,300,4000,300,3840,300C3680,300,3520,300,3360,300C3200,300,3040,300,2880,300C2720,300,2560,300,2400,300C2240,300,2080,300,1920,300C1760,300,1600,300,1440,300C1280,300,1120,300,960,300C800,300,640,300,480,300C320,300,160,300,80,300L0,300Z"/></svg>