<?xml version="1.0" standalone="no"?>
<svg xmlns:xlink="http://www.w3.org/1999/xlink" id="wave" style="transform:rotate(0deg); transition: 0.3s" viewBox="0 0 1440 300" version="1.1" xmlns="http://www.w3.org/2000/svg"><defs><linearGradient id="sw-gradient-0" x1="0" x2="0" y1="1" y2="0"><stop stop-color="rgba(29, 155, 240, 1)" offset="0%"/><stop stop-color="rgba(29, 155, 240, 1)" offset="100%"/></linearGradient></defs><path style="transform:translate(0, 0px); opacity:1" fill="url(#sw-gradient-0)" d="M0,30L80,55C160,80,320,130,480,135C640,140,800,100,960,75C1120,50,1280,40,1440,70C1600,100,1760,170,1920,170C2080,170,2240,100,2400,60C2560,20,2720,10,2880,25C3040,40,3200,80,3360,95C3520,110,3680,100,3840,105C4000,110,4160,130,4320,155C4480,180,4640,210,4800,210C4960,210,5120,180,5280,160C5440,140,5600,130,5760,130C5920,130,6080,140,6240,130C6400,120,6560,90,6720,75C6880,60,7040,60,7200,70C7360,80,7520,100,7680,115C7840,130,8000,140,8160,155C8320,170,8480,190,8640,200C8800,210,8960,210,9120,190C9280,170,9440,130,9600,125C9760,120,9920,150,10080,145C10240,140,10400,100,10560,105C10720,110,10880,160,11040,155C11200,150,11360,90,11440,60L11520,30L11520,300L11440,300C11360,300,11200,300,11040,300C10880,300,10720,300,10560,300C10400,300,10240,300,10080,300C9920,300,9760,300,9600,300C9440,300,9280,300,9120,300C8960,300,8800,300,8640,300C8480,300,8320,300,8160,300C8000,300,7840,300,7680,300C7520,300,7360,300,7200,300C7040,300,6880,300,6720,300C6560,300,6400,300,6240,300C6080,300,5920,300,5760,300C5600,300,5440,300,5280,300C5120,300,4960,300,4800,300C4640,300,4480,300,4320,300C4160,300,4000,300,3840,300C3680,300,3520,300,3360,300C3200,300,3040,300,2880,300C2720,300,2560,300,2400,300C2240,300,2080,300,1920,300C1760,300,1600,300,1440,300C1280,300,1120,300,960,300C800,300,640,300,480,300C320,300,160,300,80,300L0,300Z"/></svg>